<mxfile host="Electron" modified="2024-01-31T15:33:47.537Z" agent="Mozilla/5.0 (Macintosh; Intel Mac OS X 10_15_7) AppleWebKit/537.36 (KHTML, like Gecko) draw.io/23.0.2 Chrome/120.0.6099.109 Electron/28.1.0 Safari/537.36" etag="XcOLjE4E5LZAoFAhAol_" version="23.0.2" type="device" pages="2">
  <diagram name="overview-power" id="IRsJZ1TiuMqbQMA1rF2r">
    <mxGraphModel dx="1685" dy="1492" grid="0" gridSize="10" guides="1" tooltips="1" connect="1" arrows="1" fold="1" page="0" pageScale="1" pageWidth="1050" pageHeight="500" math="0" shadow="0">
      <root>
        <mxCell id="KAIxgbsrkHdad3dWBSFc-0" />
        <mxCell id="KAIxgbsrkHdad3dWBSFc-1" parent="KAIxgbsrkHdad3dWBSFc-0" />
        <mxCell id="KAIxgbsrkHdad3dWBSFc-2" value="IBM Cloud" style="shape=mxgraph.ibm.box;prType=cloud;fontStyle=0;verticalAlign=top;align=left;spacingLeft=32;spacingTop=4;fillColor=none;rounded=0;whiteSpace=wrap;html=1;strokeColor=#4376BB;strokeWidth=3;dashed=0;container=0;spacing=-4;collapsible=0;expand=0;recursiveResize=0;" parent="KAIxgbsrkHdad3dWBSFc-1" vertex="1">
          <mxGeometry x="-143" y="-472" width="805" height="490" as="geometry" />
        </mxCell>
        <mxCell id="KAIxgbsrkHdad3dWBSFc-3" value="&lt;span style=&quot;font-weight: normal;&quot;&gt;us-south&lt;/span&gt;" style="shape=mxgraph.ibm.box;prType=region;fontStyle=1;verticalAlign=top;align=left;spacingLeft=32;spacingTop=4;fillColor=none;rounded=0;whiteSpace=wrap;html=1;strokeColor=#919191;strokeWidth=2;container=0;spacing=-4;collapsible=0;expand=0;recursiveResize=0;" parent="KAIxgbsrkHdad3dWBSFc-1" vertex="1">
          <mxGeometry x="-98" y="-451" width="744" height="452" as="geometry" />
        </mxCell>
        <mxCell id="KAIxgbsrkHdad3dWBSFc-7" value="&lt;b&gt;Spoke Power&lt;/b&gt;" style="fontStyle=0;verticalAlign=top;align=center;spacingTop=-2;fillColor=none;rounded=0;whiteSpace=wrap;html=1;strokeColor=#00882B;strokeWidth=2;dashed=1;container=0;collapsible=0;expand=0;recursiveResize=0;shadow=0;labelBackgroundColor=none;fontFamily=Helvetica;fontSize=11;fontColor=default;" parent="KAIxgbsrkHdad3dWBSFc-1" vertex="1">
          <mxGeometry x="299" y="-345" width="242" height="172" as="geometry" />
        </mxCell>
        <mxCell id="DtT9lMc432X_1YVfVdx5-1" value="DAL 10 (PER)&amp;nbsp; 10.1.0.0/24" style="shape=mxgraph.ibm.box;prType=zone;fontStyle=0;verticalAlign=top;align=left;spacingLeft=32;spacingTop=4;fillColor=#E0E0E0;rounded=0;whiteSpace=wrap;html=1;strokeColor=#919191;strokeWidth=1;dashed=0;container=1;spacing=-4;collapsible=0;expand=0;recursiveResize=0;fontFamily=Helvetica;fontSize=11;fontColor=default;" parent="KAIxgbsrkHdad3dWBSFc-1" vertex="1">
          <mxGeometry x="304" y="-325" width="230" height="147" as="geometry" />
        </mxCell>
        <mxCell id="KAIxgbsrkHdad3dWBSFc-4" value="Transit Hub" style="fontStyle=0;verticalAlign=top;align=center;spacingTop=-2;fillColor=none;rounded=0;whiteSpace=wrap;html=1;strokeColor=#00882B;strokeWidth=2;dashed=1;container=0;collapsible=0;expand=0;recursiveResize=0;shadow=0;labelBackgroundColor=none;fontFamily=Helvetica;fontSize=11;fontColor=default;" parent="KAIxgbsrkHdad3dWBSFc-1" vertex="1">
          <mxGeometry x="-56.4" y="-433" width="240" height="382" as="geometry" />
        </mxCell>
        <mxCell id="DtT9lMc432X_1YVfVdx5-0" value="Zone 10.1.15.0/24" style="shape=mxgraph.ibm.box;prType=zone;fontStyle=0;verticalAlign=top;align=left;spacingLeft=32;spacingTop=4;fillColor=#E0E0E0;rounded=0;whiteSpace=wrap;html=1;strokeColor=#919191;strokeWidth=1;dashed=0;container=1;spacing=-4;collapsible=0;expand=0;recursiveResize=0;fontFamily=Helvetica;fontSize=11;fontColor=default;" parent="KAIxgbsrkHdad3dWBSFc-1" vertex="1">
          <mxGeometry x="-54" y="-413" width="230" height="355" as="geometry" />
        </mxCell>
        <mxCell id="KAIxgbsrkHdad3dWBSFc-5" value="" style="fontStyle=1;verticalAlign=top;align=center;spacingTop=-2;fillColor=none;rounded=0;whiteSpace=wrap;html=1;strokeColor=#4376BB;strokeWidth=1;dashed=0;container=0;collapsible=0;expand=0;recursiveResize=0;" parent="KAIxgbsrkHdad3dWBSFc-1" vertex="1">
          <mxGeometry x="-39.4" y="-159" width="196" height="91" as="geometry" />
        </mxCell>
        <mxCell id="KAIxgbsrkHdad3dWBSFc-10" style="edgeStyle=orthogonalEdgeStyle;shape=connector;rounded=0;orthogonalLoop=1;jettySize=auto;html=1;labelBackgroundColor=default;strokeColor=default;strokeWidth=2;fontFamily=Helvetica;fontSize=11;fontColor=default;endArrow=none;endFill=0;" parent="KAIxgbsrkHdad3dWBSFc-1" edge="1">
          <mxGeometry relative="1" as="geometry">
            <mxPoint x="161" y="-253" as="sourcePoint" />
            <mxPoint x="199.5999999999999" y="-252.5" as="targetPoint" />
          </mxGeometry>
        </mxCell>
        <mxCell id="KAIxgbsrkHdad3dWBSFc-11" value="VPC" style="shape=mxgraph.ibm.box;prType=vpc;fontStyle=0;verticalAlign=top;align=left;spacingLeft=32;spacingTop=4;fillColor=none;rounded=0;whiteSpace=wrap;html=1;strokeColor=#4376BB;strokeWidth=2;dashed=0;container=0;spacing=-4;collapsible=0;expand=0;recursiveResize=0;" parent="KAIxgbsrkHdad3dWBSFc-1" vertex="1">
          <mxGeometry x="-41.4" y="-390" width="200" height="207" as="geometry" />
        </mxCell>
        <mxCell id="KAIxgbsrkHdad3dWBSFc-12" value="Enterprise Network" style="shape=mxgraph.ibm.box;prType=enterprise;fontStyle=0;verticalAlign=top;align=left;spacingLeft=32;spacingTop=4;fillColor=none;rounded=0;whiteSpace=wrap;html=1;strokeColor=#4376BB;strokeWidth=3;dashed=0;container=0;spacing=-4;collapsible=0;expand=0;recursiveResize=0;" parent="KAIxgbsrkHdad3dWBSFc-1" vertex="1">
          <mxGeometry x="-382" y="-472" width="162" height="493" as="geometry" />
        </mxCell>
        <mxCell id="GEq2hl4OhBpVhCNsspLx-3" style="edgeStyle=orthogonalEdgeStyle;shape=connector;rounded=0;orthogonalLoop=1;jettySize=auto;html=1;entryX=0;entryY=0.5;entryDx=0;entryDy=0;labelBackgroundColor=default;strokeColor=default;strokeWidth=2;align=center;verticalAlign=middle;fontFamily=Helvetica;fontSize=11;fontColor=default;endArrow=none;endFill=0;" parent="KAIxgbsrkHdad3dWBSFc-1" target="GEq2hl4OhBpVhCNsspLx-1" edge="1">
          <mxGeometry relative="1" as="geometry">
            <mxPoint x="278.5999999999999" y="-252.5" as="sourcePoint" />
            <Array as="points">
              <mxPoint x="279" y="-124" />
            </Array>
          </mxGeometry>
        </mxCell>
        <mxCell id="GEq2hl4OhBpVhCNsspLx-4" style="edgeStyle=orthogonalEdgeStyle;shape=connector;rounded=0;orthogonalLoop=1;jettySize=auto;html=1;labelBackgroundColor=default;strokeColor=default;strokeWidth=2;align=center;verticalAlign=middle;fontFamily=Helvetica;fontSize=11;fontColor=default;endArrow=none;endFill=0;" parent="KAIxgbsrkHdad3dWBSFc-1" edge="1">
          <mxGeometry relative="1" as="geometry">
            <mxPoint x="297" y="-252.5" as="targetPoint" />
            <mxPoint x="259.5999999999999" y="-252.5" as="sourcePoint" />
          </mxGeometry>
        </mxCell>
        <mxCell id="KAIxgbsrkHdad3dWBSFc-15" value="&lt;span style=&quot;font-weight: normal&quot;&gt;Workspace&lt;/span&gt;" style="shape=mxgraph.ibm.box;prType=vpc;fontStyle=1;verticalAlign=top;align=left;spacingLeft=32;spacingTop=4;fillColor=none;rounded=0;whiteSpace=wrap;html=1;strokeColor=#4376BB;strokeWidth=2;dashed=0;container=0;spacing=-4;collapsible=0;expand=0;recursiveResize=0;" parent="KAIxgbsrkHdad3dWBSFc-1" vertex="1">
          <mxGeometry x="311" y="-297" width="200" height="100" as="geometry" />
        </mxCell>
        <mxCell id="KAIxgbsrkHdad3dWBSFc-26" style="edgeStyle=orthogonalEdgeStyle;shape=connector;rounded=0;orthogonalLoop=1;jettySize=auto;html=1;labelBackgroundColor=default;strokeColor=default;strokeWidth=1;align=center;verticalAlign=middle;fontFamily=Helvetica;fontSize=11;fontColor=default;endArrow=none;endFill=0;" parent="KAIxgbsrkHdad3dWBSFc-1" edge="1">
          <mxGeometry relative="1" as="geometry">
            <mxPoint x="40" y="-122" as="targetPoint" />
            <Array as="points">
              <mxPoint x="26" y="-229" />
              <mxPoint x="26" y="-122" />
            </Array>
            <mxPoint x="33" y="-229" as="sourcePoint" />
          </mxGeometry>
        </mxCell>
        <mxCell id="5Pguig5L2R7S4xjTBcFx-2" style="edgeStyle=orthogonalEdgeStyle;shape=connector;rounded=0;orthogonalLoop=1;jettySize=auto;html=1;entryX=-0.01;entryY=0.44;entryDx=0;entryDy=0;entryPerimeter=0;labelBackgroundColor=default;strokeColor=default;strokeWidth=2;align=center;verticalAlign=middle;fontFamily=Helvetica;fontSize=11;fontColor=default;endArrow=none;endFill=0;" parent="KAIxgbsrkHdad3dWBSFc-1" target="KAIxgbsrkHdad3dWBSFc-15" edge="1">
          <mxGeometry relative="1" as="geometry">
            <mxPoint x="278.5999999999999" y="-252.5" as="sourcePoint" />
          </mxGeometry>
        </mxCell>
        <mxCell id="GEq2hl4OhBpVhCNsspLx-1" value="&lt;b&gt;Other VPC or Power Spokes&lt;/b&gt;" style="fontStyle=0;verticalAlign=top;align=center;spacingTop=-2;fillColor=none;rounded=0;whiteSpace=wrap;html=1;strokeColor=#00882B;strokeWidth=2;dashed=1;container=0;collapsible=0;expand=0;recursiveResize=0;shadow=0;labelBackgroundColor=none;fontFamily=Helvetica;fontSize=11;fontColor=default;" parent="KAIxgbsrkHdad3dWBSFc-1" vertex="1">
          <mxGeometry x="299" y="-146" width="241" height="44" as="geometry" />
        </mxCell>
        <mxCell id="DW1f0HSxteo_mqmvAUEd-0" value="COS" style="sketch=0;pointerEvents=1;shadow=0;dashed=0;html=1;strokeColor=none;fillColor=#DF8C42;labelPosition=center;verticalLabelPosition=bottom;verticalAlign=top;align=center;outlineConnect=0;shape=mxgraph.veeam2.ibm_object_storage;" parent="KAIxgbsrkHdad3dWBSFc-1" vertex="1">
          <mxGeometry x="34.599999999999994" y="-148" width="48" height="48" as="geometry" />
        </mxCell>
        <mxCell id="UwNYNKmvV8UiWjBvIWau-0" value="VPE" style="shape=image;aspect=fixed;image=data:image/svg+xml,PHN2ZyBpZD0iTGF5ZXJfMSIgZGF0YS1uYW1lPSJMYXllciAxIiB4bWxucz0iaHR0cDovL3d3dy53My5vcmcvMjAwMC9zdmciIHZpZXdCb3g9IjAgMCA0OSA0OSI+PGRlZnM+PHN0eWxlPi5jbHMtMXtmaWxsOiMxMTkyZTg7fS5jbHMtMntmaWxsOiNmZmY7fS5jbHMtM3tmaWxsOm5vbmU7fTwvc3R5bGU+PC9kZWZzPjxyZWN0IGNsYXNzPSJjbHMtMSIgeD0iMC41IiB5PSIwLjUiIHdpZHRoPSI0OCIgaGVpZ2h0PSI0OCIvPjxwYXRoIGlkPSJ2cGNfZ3JhZGllbnRfYm90dG9tIiBkYXRhLW5hbWU9InZwYyBncmFkaWVudCBib3R0b20iIGNsYXNzPSJjbHMtMiIgZD0iTTI3LDMxLjM4SDE4Ljg4YTEuMjcsMS4yNywwLDAsMS0xLjI2LTEuMjVWMjJoMS4yNnY4LjEzSDI3WiIvPjxwYXRoIGlkPSJ2cGNfZ3JhZGllbnRfdG9wIiBkYXRhLW5hbWU9InZwYyBncmFkaWVudCB0b3AiIGNsYXNzPSJjbHMtMiIgZD0iTTMwLjEyLDI3aDEuMjZWMTguODhhMS4yNiwxLjI2LDAsMCwwLTEuMjYtMS4yNUgyMnYxLjI1aDguMTJaIi8+PHBhdGggaWQ9ImVuZHBvaW50cyIgY2xhc3M9ImNscy0yIiBkPSJNMjkuMTIsMjguMjVsLTIuNS0yLjVBMi4yNiwyLjI2LDAsMCwwLDI3LDI0LjUsMi41MSwyLjUxLDAsMCwwLDI0LjUsMjJhMi4xOSwyLjE5LDAsMCwwLTEuMjUuMzhsLTIuNS0yLjVWMTUuNzVoLTV2NWg0LjEzbDIuNSwyLjVBMi4yNiwyLjI2LDAsMCwwLDIyLDI0LjUsMi41MSwyLjUxLDAsMCwwLDI0LjUsMjdhMi4yNiwyLjI2LDAsMCwwLDEuMjUtLjM4bDIuNSwyLjV2NC4xM2g1di01Wk0xOS41LDE5LjVIMTdWMTdoMi41Wm01LDYuMjVhMS4yNSwxLjI1LDAsMSwxLDEuMjUtMS4yNUExLjI1LDEuMjUsMCwwLDEsMjQuNSwyNS43NVpNMzIsMzJIMjkuNVYyOS41SDMyWiIvPjxyZWN0IGNsYXNzPSJjbHMtMyIgeD0iMTQuNSIgeT0iMTQuNSIgd2lkdGg9IjIwIiBoZWlnaHQ9IjIwIi8+PC9zdmc+;fontSize=14;fontFamily=IBM Plex Sans;fontSource=fonts%2FIBMPlexSans-Regular.woff;spacingTop=-7;labelPosition=center;verticalLabelPosition=bottom;align=center;verticalAlign=top;" vertex="1" parent="KAIxgbsrkHdad3dWBSFc-1">
          <mxGeometry x="34.599999999999994" y="-253" width="48" height="48" as="geometry" />
        </mxCell>
        <mxCell id="UwNYNKmvV8UiWjBvIWau-4" value="Transit&#xa;Gateway" style="shape=image;aspect=fixed;image=data:image/svg+xml,PHN2ZyBpZD0iTGF5ZXJfMSIgZGF0YS1uYW1lPSJMYXllciAxIiB4bWxucz0iaHR0cDovL3d3dy53My5vcmcvMjAwMC9zdmciIHZpZXdCb3g9IjAgMCA0OSA0OSI+PGRlZnM+PHN0eWxlPi5jbHMtMXtmaWxsOiMxMTkyZTg7fS5jbHMtMiwuY2xzLTR7ZmlsbDpub25lO30uY2xzLTJ7ZmlsbC1ydWxlOmV2ZW5vZGQ7fS5jbHMtM3tmaWxsOiNmZmY7fTwvc3R5bGU+PC9kZWZzPjxyZWN0IGNsYXNzPSJjbHMtMSIgeD0iMC41IiB5PSIwLjUiIHdpZHRoPSI0OCIgaGVpZ2h0PSI0OCIvPjxnIGlkPSJtYXNrLTIiPjxwb2x5Z29uIGlkPSJwYXRoLTEiIGNsYXNzPSJjbHMtMiIgcG9pbnRzPSIxNy4xOCAxNC4yOSAzNy4xNyAxNC4yOSAzNy4xNyAzNC4yOSAxNy4xOCAzNC4yOSAxNy4xOCAxNC4yOSIvPjwvZz48cGF0aCBjbGFzcz0iY2xzLTMiIGQ9Ik0zMC42OSwyNy41NmwyLjE4LTIuMTlhMS4yMSwxLjIxLDAsMCwwLDAtMS43NWwtMy4zMS0zLjMxLjg4LS44N2EuNTYuNTYsMCwwLDAsLjMxLjA2LDEuMjUsMS4yNSwwLDEsMC0xLjI1LTEuMjUuNTcuNTcsMCwwLDAsLjA2LjMxbC0zLjgxLDMuODJBMi4yNiwyLjI2LDAsMCwwLDI0LjUsMjJhMi4xOSwyLjE5LDAsMCwwLTEuMjUuMzhsLTIuMDYtMi4wN0wyNC41LDE3bDIuMTksMi4xOS44Ny0uODgtMi4xOS0yLjE5YTEuMjEsMS4yMSwwLDAsMC0xLjc0LDBsLTMuMzIsMy4zMi0uODctLjg4YS41Ny41NywwLDAsMCwuMDYtLjMxLDEuMjUsMS4yNSwwLDEsMC0xLjI1LDEuMjUuNTcuNTcsMCwwLDAsLjMxLS4wNmwzLjgyLDMuODFBMi4yNiwyLjI2LDAsMCwwLDIyLDI0LjVhMi4xOSwyLjE5LDAsMCwwLC4zOCwxLjI1bC0yLjA3LDIuMDZMMTcsMjQuNWwyLjE5LTIuMTktLjg4LS44Ny0yLjE5LDIuMTlhMS4yLDEuMiwwLDAsMCwwLDEuNzRsMy4zMiwzLjMyLS44OC44N2EuNTcuNTcsMCwwLDAtLjMxLS4wNiwxLjI1LDEuMjUsMCwxLDAsMS4yNSwxLjI1LjU2LjU2LDAsMCwwLS4wNi0uMzFsMy44MS0zLjgyYTIuMjUsMi4yNSwwLDAsMCwyLjUsMGwyLjA2LDIuMDdMMjQuNSwzMmwtMi4xOS0yLjE5LS44Ny44OCwyLjE5LDIuMThhMS4xOSwxLjE5LDAsMCwwLDEuNzQsMGwzLjMyLTMuMzEuODcuODhjMCwuMTItLjA2LjE4LS4wNi4zMWExLjI1LDEuMjUsMCwxLDAsMS4yNS0xLjI1LjU2LjU2LDAsMCwwLS4zMS4wNmwtMy44Mi0zLjgxYTIuMjUsMi4yNSwwLDAsMCwwLTIuNWwyLjA3LTIuMDZMMzIsMjQuNWwtMi4xOSwyLjE5Wk0yNC41LDI1Ljc1YTEuMjUsMS4yNSwwLDEsMSwxLjI1LTEuMjVBMS4yNSwxLjI1LDAsMCwxLDI0LjUsMjUuNzVaIi8+PHJlY3QgY2xhc3M9ImNscy00IiB4PSIxNC41IiB5PSIxNC41IiB3aWR0aD0iMjAiIGhlaWdodD0iMjAiLz48L3N2Zz4=;fontFamily=IBM Plex Sans;fontSource=fonts%2FIBMPlexSans-Regular.woff;fontSize=14;labelPosition=center;verticalLabelPosition=bottom;align=center;verticalAlign=top;spacingTop=-7;" vertex="1" parent="KAIxgbsrkHdad3dWBSFc-1">
          <mxGeometry x="206" y="-275.5" width="48" height="48" as="geometry" />
        </mxCell>
        <mxCell id="UwNYNKmvV8UiWjBvIWau-6" value="transit 10.1.15.4" style="shape=image;aspect=fixed;image=data:image/svg+xml,PD94bWwgdmVyc2lvbj0iMS4wIiBlbmNvZGluZz0iVVRGLTgiPz4KPHN2ZyB3aWR0aD0iNDhweCIgaGVpZ2h0PSI0OHB4IiB2aWV3Qm94PSIwIDAgNDggNDgiIHZlcnNpb249IjEuMSIgeG1sbnM9Imh0dHA6Ly93d3cudzMub3JnLzIwMDAvc3ZnIiB4bWxuczp4bGluaz0iaHR0cDovL3d3dy53My5vcmcvMTk5OS94bGluayI+CiAgICA8dGl0bGU+R3JvdXAgMTI3PC90aXRsZT4KICAgIDxnIGlkPSJQYWdlLTEiIHN0cm9rZT0ibm9uZSIgc3Ryb2tlLXdpZHRoPSIxIiBmaWxsPSJub25lIiBmaWxsLXJ1bGU9ImV2ZW5vZGQiPgogICAgICAgIDxnIGlkPSJ2Mi00OHg0OCIgdHJhbnNmb3JtPSJ0cmFuc2xhdGUoLTI3MzksIC0xMDExKSI+CiAgICAgICAgICAgIDxnIGlkPSJHcm91cC0xMjciIHRyYW5zZm9ybT0idHJhbnNsYXRlKDI3MzksIDEwMTEpIj4KICAgICAgICAgICAgICAgIDxnIGlkPSJLdWJlcm5ldGVzIiBmaWxsPSIjMTk4MDM4Ij4KICAgICAgICAgICAgICAgICAgICA8cG9seWdvbiBpZD0iRmlsbC00IiBwb2ludHM9IjAgNDggNDggNDggNDggMCAwIDAiPjwvcG9seWdvbj4KICAgICAgICAgICAgICAgIDwvZz4KICAgICAgICAgICAgICAgIDxnIGlkPSJpYm0tY2xvdWQtLXZpcnR1YWwtc2VydmVyLXZwYyIgdHJhbnNmb3JtPSJ0cmFuc2xhdGUoOCwgOCkiPgogICAgICAgICAgICAgICAgICAgIDxjaXJjbGUgaWQ9Ik92YWwiIGZpbGw9IiNGRkZGRkYiIGZpbGwtcnVsZT0ibm9uemVybyIgY3g9IjgiIGN5PSIyNiIgcj0iMSI+PC9jaXJjbGU+CiAgICAgICAgICAgICAgICAgICAgPHBhdGggZD0iTTUsMzAgTDI3LDMwIEMyOC4xLDMwIDI5LDI5LjEgMjksMjggTDI5LDI0IEMyOSwyMi45IDI4LjEsMjIgMjcsMjIgTDUsMjIgQzMuOSwyMiAzLDIyLjkgMywyNCBMMywyOCBDMywyOS4xIDMuOSwzMCA1LDMwIFogTTUsMjQgTDI3LDI0IEwyNywyOCBMNSwyOCBMNSwyNCBaIiBpZD0iU2hhcGUiIGZpbGw9IiNGRkZGRkYiIGZpbGwtcnVsZT0ibm9uemVybyI+PC9wYXRoPgogICAgICAgICAgICAgICAgICAgIDxwYXRoIGQ9Ik0yMywyMCBMOSwyMCBDNS42OSwyMCAzLDE3LjMxIDMsMTQgQzMsMTAuOTUgNS4yOSw4LjQyIDguMjUsOC4wNSBDOS4xMyw0LjU1IDEyLjMzLDIgMTYsMiBDMTkuNjcsMiAyMi44Nyw0LjU1IDIzLjc1LDguMDUgQzI2LjcxLDguNDIgMjksMTAuOTUgMjksMTQgQzI5LDE3LjMxIDI2LjMxLDIwIDIzLDIwIFogTTguOTUsMTAgQzYuNzcsMTAuMDMgNSwxMS44MSA1LDE0IEM1LDE2LjIxIDYuNzksMTggOSwxOCBMMjMsMTggQzI1LjIxLDE4IDI3LDE2LjIxIDI3LDE0IEMyNywxMS44MSAyNS4yNCwxMC4wMyAyMy4wNiwxMCBMMjIuOTQsMTAuMDEgTDIyLjA2LDEwLjAzIEwyMS45NCw5LjE1IEMyMS41MSw2LjIxIDE4Ljk2LDQgMTYsNCBDMTMuMDQsNCAxMC40OSw2LjIxIDEwLjA3LDkuMTUgTDkuOTUsMTAuMDMgTDguOTUsMTAgWiIgaWQ9IlNoYXBlIiBmaWxsPSIjRkZGRkZGIiBmaWxsLXJ1bGU9Im5vbnplcm8iPjwvcGF0aD4KICAgICAgICAgICAgICAgICAgICA8ZyBpZD0iX1RyYW5zcGFyZW50X1JlY3RhbmdsZV8iPgogICAgICAgICAgICAgICAgICAgICAgICA8cmVjdCBpZD0iUmVjdGFuZ2xlIiB4PSIwIiB5PSIwIiB3aWR0aD0iMzIiIGhlaWdodD0iMzIiPjwvcmVjdD4KICAgICAgICAgICAgICAgICAgICA8L2c+CiAgICAgICAgICAgICAgICA8L2c+CiAgICAgICAgICAgIDwvZz4KICAgICAgICA8L2c+CiAgICA8L2c+Cjwvc3ZnPg==;fontSize=14;fontFamily=IBM Plex Sans;fontSource=fonts%2FIBMPlexSans-Regular.woff;labelPosition=center;verticalLabelPosition=bottom;align=center;verticalAlign=top;spacingTop=-6;" vertex="1" parent="KAIxgbsrkHdad3dWBSFc-1">
          <mxGeometry x="71" y="-356" width="48" height="48" as="geometry" />
        </mxCell>
        <mxCell id="UwNYNKmvV8UiWjBvIWau-7" value="power 10.1.0.31" style="shape=image;aspect=fixed;image=data:image/svg+xml,PD94bWwgdmVyc2lvbj0iMS4wIiBlbmNvZGluZz0iVVRGLTgiPz4KPHN2ZyB3aWR0aD0iNDhweCIgaGVpZ2h0PSI0OHB4IiB2aWV3Qm94PSIwIDAgNDggNDgiIHZlcnNpb249IjEuMSIgeG1sbnM9Imh0dHA6Ly93d3cudzMub3JnLzIwMDAvc3ZnIiB4bWxuczp4bGluaz0iaHR0cDovL3d3dy53My5vcmcvMTk5OS94bGluayI+CiAgICA8dGl0bGU+R3JvdXAgMTI3PC90aXRsZT4KICAgIDxnIGlkPSJQYWdlLTEiIHN0cm9rZT0ibm9uZSIgc3Ryb2tlLXdpZHRoPSIxIiBmaWxsPSJub25lIiBmaWxsLXJ1bGU9ImV2ZW5vZGQiPgogICAgICAgIDxnIGlkPSJ2Mi00OHg0OCIgdHJhbnNmb3JtPSJ0cmFuc2xhdGUoLTI3MzksIC0xMDExKSI+CiAgICAgICAgICAgIDxnIGlkPSJHcm91cC0xMjciIHRyYW5zZm9ybT0idHJhbnNsYXRlKDI3MzksIDEwMTEpIj4KICAgICAgICAgICAgICAgIDxnIGlkPSJLdWJlcm5ldGVzIiBmaWxsPSIjMTk4MDM4Ij4KICAgICAgICAgICAgICAgICAgICA8cG9seWdvbiBpZD0iRmlsbC00IiBwb2ludHM9IjAgNDggNDggNDggNDggMCAwIDAiPjwvcG9seWdvbj4KICAgICAgICAgICAgICAgIDwvZz4KICAgICAgICAgICAgICAgIDxnIGlkPSJpYm0tY2xvdWQtLXZpcnR1YWwtc2VydmVyLXZwYyIgdHJhbnNmb3JtPSJ0cmFuc2xhdGUoOCwgOCkiPgogICAgICAgICAgICAgICAgICAgIDxjaXJjbGUgaWQ9Ik92YWwiIGZpbGw9IiNGRkZGRkYiIGZpbGwtcnVsZT0ibm9uemVybyIgY3g9IjgiIGN5PSIyNiIgcj0iMSI+PC9jaXJjbGU+CiAgICAgICAgICAgICAgICAgICAgPHBhdGggZD0iTTUsMzAgTDI3LDMwIEMyOC4xLDMwIDI5LDI5LjEgMjksMjggTDI5LDI0IEMyOSwyMi45IDI4LjEsMjIgMjcsMjIgTDUsMjIgQzMuOSwyMiAzLDIyLjkgMywyNCBMMywyOCBDMywyOS4xIDMuOSwzMCA1LDMwIFogTTUsMjQgTDI3LDI0IEwyNywyOCBMNSwyOCBMNSwyNCBaIiBpZD0iU2hhcGUiIGZpbGw9IiNGRkZGRkYiIGZpbGwtcnVsZT0ibm9uemVybyI+PC9wYXRoPgogICAgICAgICAgICAgICAgICAgIDxwYXRoIGQ9Ik0yMywyMCBMOSwyMCBDNS42OSwyMCAzLDE3LjMxIDMsMTQgQzMsMTAuOTUgNS4yOSw4LjQyIDguMjUsOC4wNSBDOS4xMyw0LjU1IDEyLjMzLDIgMTYsMiBDMTkuNjcsMiAyMi44Nyw0LjU1IDIzLjc1LDguMDUgQzI2LjcxLDguNDIgMjksMTAuOTUgMjksMTQgQzI5LDE3LjMxIDI2LjMxLDIwIDIzLDIwIFogTTguOTUsMTAgQzYuNzcsMTAuMDMgNSwxMS44MSA1LDE0IEM1LDE2LjIxIDYuNzksMTggOSwxOCBMMjMsMTggQzI1LjIxLDE4IDI3LDE2LjIxIDI3LDE0IEMyNywxMS44MSAyNS4yNCwxMC4wMyAyMy4wNiwxMCBMMjIuOTQsMTAuMDEgTDIyLjA2LDEwLjAzIEwyMS45NCw5LjE1IEMyMS41MSw2LjIxIDE4Ljk2LDQgMTYsNCBDMTMuMDQsNCAxMC40OSw2LjIxIDEwLjA3LDkuMTUgTDkuOTUsMTAuMDMgTDguOTUsMTAgWiIgaWQ9IlNoYXBlIiBmaWxsPSIjRkZGRkZGIiBmaWxsLXJ1bGU9Im5vbnplcm8iPjwvcGF0aD4KICAgICAgICAgICAgICAgICAgICA8ZyBpZD0iX1RyYW5zcGFyZW50X1JlY3RhbmdsZV8iPgogICAgICAgICAgICAgICAgICAgICAgICA8cmVjdCBpZD0iUmVjdGFuZ2xlIiB4PSIwIiB5PSIwIiB3aWR0aD0iMzIiIGhlaWdodD0iMzIiPjwvcmVjdD4KICAgICAgICAgICAgICAgICAgICA8L2c+CiAgICAgICAgICAgICAgICA8L2c+CiAgICAgICAgICAgIDwvZz4KICAgICAgICA8L2c+CiAgICA8L2c+Cjwvc3ZnPg==;fontSize=14;fontFamily=IBM Plex Sans;fontSource=fonts%2FIBMPlexSans-Regular.woff;labelPosition=center;verticalLabelPosition=bottom;align=center;verticalAlign=top;spacingTop=-6;" vertex="1" parent="KAIxgbsrkHdad3dWBSFc-1">
          <mxGeometry x="381" y="-275" width="48" height="48" as="geometry" />
        </mxCell>
        <mxCell id="UwNYNKmvV8UiWjBvIWau-17" value="enterprise&#xa;192.168.0.4" style="shape=image;aspect=fixed;image=data:image/svg+xml,PHN2ZyBpZD0iTGF5ZXJfMSIgZGF0YS1uYW1lPSJMYXllciAxIiB4bWxucz0iaHR0cDovL3d3dy53My5vcmcvMjAwMC9zdmciIHZpZXdCb3g9IjAgMCA0OSA0OSI+PGRlZnM+PHN0eWxlPi5jbHMtMXtmaWxsOiMxOTgwMzg7fS5jbHMtMntmaWxsOiNmZmY7fS5jbHMtM3tmaWxsOm5vbmU7fTwvc3R5bGU+PC9kZWZzPjxyZWN0IGNsYXNzPSJjbHMtMSIgeD0iMC41IiB5PSIwLjUiIHdpZHRoPSI0OCIgaGVpZ2h0PSI0OCIgcng9IjgiLz48Y2lyY2xlIGNsYXNzPSJjbHMtMiIgY3g9IjIwLjEzIiBjeT0iMTguMjUiIHI9IjAuNjMiLz48cGF0aCBjbGFzcz0iY2xzLTIiIGQ9Ik0zMC43NSwyMC43NUgxOC4yNUExLjI1LDEuMjUsMCwwLDEsMTcsMTkuNVYxN2ExLjI1LDEuMjUsMCwwLDEsMS4yNS0xLjI1aDEyLjVBMS4yNSwxLjI1LDAsMCwxLDMyLDE3djIuNUExLjI1LDEuMjUsMCwwLDEsMzAuNzUsMjAuNzVaTTE4LjI1LDE3djIuNWgxMi41VjE3WiIvPjxjaXJjbGUgY2xhc3M9ImNscy0yIiBjeD0iMjAuMTMiIGN5PSIyNC41IiByPSIwLjYzIi8+PHBhdGggY2xhc3M9ImNscy0yIiBkPSJNMzAuNzUsMjdIMTguMjVBMS4yNSwxLjI1LDAsMCwxLDE3LDI1Ljc1di0yLjVBMS4yNSwxLjI1LDAsMCwxLDE4LjI1LDIyaDEyLjVBMS4yNSwxLjI1LDAsMCwxLDMyLDIzLjI1djIuNUExLjI1LDEuMjUsMCwwLDEsMzAuNzUsMjdabS0xMi41LTMuNzV2Mi41aDEyLjV2LTIuNVoiLz48Y2lyY2xlIGNsYXNzPSJjbHMtMiIgY3g9IjIwLjEzIiBjeT0iMzAuNzUiIHI9IjAuNjMiLz48cGF0aCBjbGFzcz0iY2xzLTIiIGQ9Ik0zMC43NSwzMy4yNUgxOC4yNUExLjI1LDEuMjUsMCwwLDEsMTcsMzJWMjkuNWExLjI1LDEuMjUsMCwwLDEsMS4yNS0xLjI1aDEyLjVBMS4yNSwxLjI1LDAsMCwxLDMyLDI5LjVWMzJBMS4yNSwxLjI1LDAsMCwxLDMwLjc1LDMzLjI1Wk0xOC4yNSwyOS41VjMyaDEyLjVWMjkuNVoiLz48cmVjdCBjbGFzcz0iY2xzLTMiIHg9IjE0LjUiIHk9IjE0LjUiIHdpZHRoPSIyMCIgaGVpZ2h0PSIyMCIvPjwvc3ZnPg==;fontSize=14;fontFamily=IBM Plex Sans;fontSource=fonts%2FIBMPlexSans-Regular.woff;labelPosition=center;verticalLabelPosition=bottom;align=center;verticalAlign=top;spacingTop=-7;" vertex="1" parent="KAIxgbsrkHdad3dWBSFc-1">
          <mxGeometry x="-334" y="-308" width="48" height="48" as="geometry" />
        </mxCell>
        <mxCell id="KAIxgbsrkHdad3dWBSFc-34" value="vpn" parent="KAIxgbsrkHdad3dWBSFc-0" />
        <mxCell id="5Pguig5L2R7S4xjTBcFx-13" style="edgeStyle=orthogonalEdgeStyle;shape=connector;rounded=0;orthogonalLoop=1;jettySize=auto;html=1;entryX=1;entryY=0.5;entryDx=0;entryDy=0;labelBackgroundColor=default;strokeColor=default;strokeWidth=2;align=center;verticalAlign=middle;fontFamily=Helvetica;fontSize=11;fontColor=default;endArrow=none;endFill=0;exitX=0;exitY=0.5;exitDx=0;exitDy=0;" parent="KAIxgbsrkHdad3dWBSFc-34" source="UwNYNKmvV8UiWjBvIWau-13" target="UwNYNKmvV8UiWjBvIWau-10" edge="1">
          <mxGeometry relative="1" as="geometry">
            <mxPoint x="-50" y="-337" as="sourcePoint" />
            <mxPoint x="-218.4000000000001" y="-334" as="targetPoint" />
          </mxGeometry>
        </mxCell>
        <mxCell id="UwNYNKmvV8UiWjBvIWau-10" value="VPN" style="group;fontFamily=IBM Plex Sans;verticalAlign=top;labelPosition=center;verticalLabelPosition=bottom;align=center;spacingLeft=0;spacingRight=0;spacingBottom=4;whiteSpace=wrap;html=1;fontStyle=0;fontSize=14;strokeOpacity=0;strokeColor=none;strokeWidth=0;spacing=0;connectable=1;" vertex="1" connectable="0" parent="KAIxgbsrkHdad3dWBSFc-34">
          <mxGeometry x="-273" y="-356" width="48" height="48" as="geometry" />
        </mxCell>
        <mxCell id="UwNYNKmvV8UiWjBvIWau-11" value="" style="editable=0;moveable=0;rounded=0;whiteSpace=wrap;html=1;spacingLeft=0;verticalAlign=top;fontFamily=IBM Plex Sans;fontSize=14;align=center;spacingBottom=0;spacingRight=0;labelPosition=center;verticalLabelPosition=bottom;spacing=0;strokeColor=#999999;connectable=0;allowArrows=0;" vertex="1" parent="UwNYNKmvV8UiWjBvIWau-10">
          <mxGeometry width="48" height="48" as="geometry" />
        </mxCell>
        <mxCell id="UwNYNKmvV8UiWjBvIWau-12" value="" style="editable=0;moveable=0;rounded=0;shape=image;verticalLabelPosition=bottom;labelBackgroundColor=default;verticalAlign=top;aspect=fixed;imageAspect=0;image=data:image/svg+xml,PHN2ZyBpZD0iVlBDU2l0ZXRvU2l0ZVZQTiIgeG1sbnM9Imh0dHA6Ly93d3cudzMub3JnLzIwMDAvc3ZnIiB2aWV3Qm94PSIwIDAgMzIgMzIiPjxkZWZzPjxsaW5lYXJHcmFkaWVudCBpZD0id2N1NjFoNnY1YSIgeDE9IjIzNTcuNDM0IiB5MT0iLTk5MS43NzUiIHgyPSIyMzU3LjQzNCIgeTI9Ii0xMDExLjc3NSIgZ3JhZGllbnRUcmFuc2Zvcm09Im1hdHJpeCgxIDAgMCAtLjk5IC0yMzQxLjQzNCAtOTc1LjcwNykiIGdyYWRpZW50VW5pdHM9InVzZXJTcGFjZU9uVXNlIj48c3RvcCBvZmZzZXQ9Ii4wNSIvPjxzdG9wIG9mZnNldD0iLjYiIHN0b3Atb3BhY2l0eT0iMCIvPjwvbGluZWFyR3JhZGllbnQ+PGxpbmVhckdyYWRpZW50IGlkPSJjbnZrenI1OWpjIiB5MT0iMzIiIHgyPSIzMiIgZ3JhZGllbnRVbml0cz0idXNlclNwYWNlT25Vc2UiPjxzdG9wIG9mZnNldD0iLjEiIHN0b3AtY29sb3I9IiNlYzUzOTQiLz48c3RvcCBvZmZzZXQ9Ii45IiBzdG9wLWNvbG9yPSIjODk0MGZhIi8+PC9saW5lYXJHcmFkaWVudD48bWFzayBpZD0ibXk5M3hsejdjYiIgeD0iMCIgeT0iMCIgd2lkdGg9IjMyIiBoZWlnaHQ9IjMyIiBtYXNrVW5pdHM9InVzZXJTcGFjZU9uVXNlIj48cGF0aCBkPSJNMjMuNzA3IDIyLjI5MyAxMCA4LjU4NlYySDJ2OGg2LjU4NmwxMy43MDcgMTMuNzA3ek04IDhINFY0aDR6IiBzdHlsZT0iZmlsbDojZmZmIi8+PHBhdGggdHJhbnNmb3JtPSJyb3RhdGUoMTM1IDE2IDE2KSIgc3R5bGU9ImZpbGw6dXJsKCN3Y3U2MWg2djVhKSIgZD0iTTExIDYuMTAxaDEwVjI1LjlIMTF6Ii8+PGc+PHJlY3QgeD0iMjIiIHk9IjI0IiB3aWR0aD0iOCIgaGVpZ2h0PSI2IiByeD0iMSIgc3R5bGU9ImZpbGw6bm9uZTtzdHJva2U6I2ZmZjtzdHJva2UtbWl0ZXJsaW1pdDoxMDtzdHJva2Utd2lkdGg6MnB4Ii8+PHBhdGggZD0iTTI1IDIxYTEgMSAwIDAgMSAyIDB2Mmgydi0yYTMgMyAwIDAgMC02IDB2MmgyeiIgc3R5bGU9ImZpbGw6I2ZmZiIvPjwvZz48L21hc2s+PC9kZWZzPjxnIHN0eWxlPSJtYXNrOnVybCgjbXk5M3hsejdjYikiPjxwYXRoIHN0eWxlPSJmaWxsOnVybCgjY252a3pyNTlqYykiIGQ9Ik0wIDBoMzJ2MzJIMHoiLz48L2c+PHBhdGggZD0iTTcgMjIuMTQyVjEzSDV2OS4xNDJBMy45OTIgMy45OTIgMCAxIDAgOS44NTggMjdIMTh2LTJIOS44NThBNCA0IDAgMCAwIDcgMjIuMTQyek02IDI4YTIgMiAwIDEgMSAyLTIgMiAyIDAgMCAxLTIgMnpNMzAgNmEzLjk5MiAzLjk5MiAwIDAgMC03Ljg1OC0xSDEzdjJoOS4xNDJBNCA0IDAgMCAwIDI1IDkuODU4VjE1aDJWOS44NThBNCA0IDAgMCAwIDMwIDZ6bS00IDJhMiAyIDAgMSAxIDItMiAyIDIgMCAwIDEtMiAyeiIgc3R5bGU9ImZpbGw6IzAwMWI3MSIvPjwvc3ZnPg==;imageBorder=none;perimeterSpacing=0;imageBackground=none;sketch=0;connectable=0;allowArrows=0;" vertex="1" parent="UwNYNKmvV8UiWjBvIWau-10">
          <mxGeometry x="12" y="12" width="24" height="24" as="geometry" />
        </mxCell>
        <mxCell id="UwNYNKmvV8UiWjBvIWau-13" value="VPN" style="group;fontFamily=IBM Plex Sans;verticalAlign=top;labelPosition=center;verticalLabelPosition=bottom;align=center;spacingLeft=0;spacingRight=0;spacingBottom=4;whiteSpace=wrap;html=1;fontStyle=0;fontSize=14;strokeOpacity=0;strokeColor=none;strokeWidth=0;spacing=0;connectable=1;" vertex="1" connectable="0" parent="KAIxgbsrkHdad3dWBSFc-34">
          <mxGeometry x="-32" y="-356" width="48" height="48" as="geometry" />
        </mxCell>
        <mxCell id="UwNYNKmvV8UiWjBvIWau-14" value="" style="editable=0;moveable=0;rounded=0;whiteSpace=wrap;html=1;spacingLeft=0;verticalAlign=top;fontFamily=IBM Plex Sans;fontSize=14;align=center;spacingBottom=0;spacingRight=0;labelPosition=center;verticalLabelPosition=bottom;spacing=0;strokeColor=#999999;connectable=0;allowArrows=0;" vertex="1" parent="UwNYNKmvV8UiWjBvIWau-13">
          <mxGeometry width="48" height="48" as="geometry" />
        </mxCell>
        <mxCell id="UwNYNKmvV8UiWjBvIWau-15" value="" style="editable=0;moveable=0;rounded=0;shape=image;verticalLabelPosition=bottom;labelBackgroundColor=default;verticalAlign=top;aspect=fixed;imageAspect=0;image=data:image/svg+xml,PHN2ZyBpZD0iVlBDU2l0ZXRvU2l0ZVZQTiIgeG1sbnM9Imh0dHA6Ly93d3cudzMub3JnLzIwMDAvc3ZnIiB2aWV3Qm94PSIwIDAgMzIgMzIiPjxkZWZzPjxsaW5lYXJHcmFkaWVudCBpZD0id2N1NjFoNnY1YSIgeDE9IjIzNTcuNDM0IiB5MT0iLTk5MS43NzUiIHgyPSIyMzU3LjQzNCIgeTI9Ii0xMDExLjc3NSIgZ3JhZGllbnRUcmFuc2Zvcm09Im1hdHJpeCgxIDAgMCAtLjk5IC0yMzQxLjQzNCAtOTc1LjcwNykiIGdyYWRpZW50VW5pdHM9InVzZXJTcGFjZU9uVXNlIj48c3RvcCBvZmZzZXQ9Ii4wNSIvPjxzdG9wIG9mZnNldD0iLjYiIHN0b3Atb3BhY2l0eT0iMCIvPjwvbGluZWFyR3JhZGllbnQ+PGxpbmVhckdyYWRpZW50IGlkPSJjbnZrenI1OWpjIiB5MT0iMzIiIHgyPSIzMiIgZ3JhZGllbnRVbml0cz0idXNlclNwYWNlT25Vc2UiPjxzdG9wIG9mZnNldD0iLjEiIHN0b3AtY29sb3I9IiNlYzUzOTQiLz48c3RvcCBvZmZzZXQ9Ii45IiBzdG9wLWNvbG9yPSIjODk0MGZhIi8+PC9saW5lYXJHcmFkaWVudD48bWFzayBpZD0ibXk5M3hsejdjYiIgeD0iMCIgeT0iMCIgd2lkdGg9IjMyIiBoZWlnaHQ9IjMyIiBtYXNrVW5pdHM9InVzZXJTcGFjZU9uVXNlIj48cGF0aCBkPSJNMjMuNzA3IDIyLjI5MyAxMCA4LjU4NlYySDJ2OGg2LjU4NmwxMy43MDcgMTMuNzA3ek04IDhINFY0aDR6IiBzdHlsZT0iZmlsbDojZmZmIi8+PHBhdGggdHJhbnNmb3JtPSJyb3RhdGUoMTM1IDE2IDE2KSIgc3R5bGU9ImZpbGw6dXJsKCN3Y3U2MWg2djVhKSIgZD0iTTExIDYuMTAxaDEwVjI1LjlIMTF6Ii8+PGc+PHJlY3QgeD0iMjIiIHk9IjI0IiB3aWR0aD0iOCIgaGVpZ2h0PSI2IiByeD0iMSIgc3R5bGU9ImZpbGw6bm9uZTtzdHJva2U6I2ZmZjtzdHJva2UtbWl0ZXJsaW1pdDoxMDtzdHJva2Utd2lkdGg6MnB4Ii8+PHBhdGggZD0iTTI1IDIxYTEgMSAwIDAgMSAyIDB2Mmgydi0yYTMgMyAwIDAgMC02IDB2MmgyeiIgc3R5bGU9ImZpbGw6I2ZmZiIvPjwvZz48L21hc2s+PC9kZWZzPjxnIHN0eWxlPSJtYXNrOnVybCgjbXk5M3hsejdjYikiPjxwYXRoIHN0eWxlPSJmaWxsOnVybCgjY252a3pyNTlqYykiIGQ9Ik0wIDBoMzJ2MzJIMHoiLz48L2c+PHBhdGggZD0iTTcgMjIuMTQyVjEzSDV2OS4xNDJBMy45OTIgMy45OTIgMCAxIDAgOS44NTggMjdIMTh2LTJIOS44NThBNCA0IDAgMCAwIDcgMjIuMTQyek02IDI4YTIgMiAwIDEgMSAyLTIgMiAyIDAgMCAxLTIgMnpNMzAgNmEzLjk5MiAzLjk5MiAwIDAgMC03Ljg1OC0xSDEzdjJoOS4xNDJBNCA0IDAgMCAwIDI1IDkuODU4VjE1aDJWOS44NThBNCA0IDAgMCAwIDMwIDZ6bS00IDJhMiAyIDAgMSAxIDItMiAyIDIgMCAwIDEtMiAyeiIgc3R5bGU9ImZpbGw6IzAwMWI3MSIvPjwvc3ZnPg==;imageBorder=none;perimeterSpacing=0;imageBackground=none;sketch=0;connectable=0;allowArrows=0;" vertex="1" parent="UwNYNKmvV8UiWjBvIWau-13">
          <mxGeometry x="12" y="12" width="24" height="24" as="geometry" />
        </mxCell>
        <mxCell id="5Pguig5L2R7S4xjTBcFx-7" value="numbers" parent="KAIxgbsrkHdad3dWBSFc-0" />
        <mxCell id="5Pguig5L2R7S4xjTBcFx-10" value="3" style="ellipse;whiteSpace=wrap;html=1;aspect=fixed;strokeWidth=2;fontFamily=Tahoma;spacingBottom=4;spacingRight=2;strokeColor=#d3d3d3;fontSize=11;fontColor=default;" parent="5Pguig5L2R7S4xjTBcFx-7" vertex="1">
          <mxGeometry x="221" y="-297" width="20" height="20" as="geometry" />
        </mxCell>
        <mxCell id="5Pguig5L2R7S4xjTBcFx-12" value="5" style="ellipse;whiteSpace=wrap;html=1;aspect=fixed;strokeWidth=2;fontFamily=Tahoma;spacingBottom=4;spacingRight=2;strokeColor=#d3d3d3;fontSize=11;fontColor=default;" parent="5Pguig5L2R7S4xjTBcFx-7" vertex="1">
          <mxGeometry x="307" y="-247" width="20" height="20" as="geometry" />
        </mxCell>
        <mxCell id="5Pguig5L2R7S4xjTBcFx-11" value="4" style="ellipse;whiteSpace=wrap;html=1;aspect=fixed;strokeWidth=2;fontFamily=Tahoma;spacingBottom=4;spacingRight=2;strokeColor=#d3d3d3;fontSize=11;fontColor=default;" parent="5Pguig5L2R7S4xjTBcFx-7" vertex="1">
          <mxGeometry x="-178" y="-355" width="20" height="20" as="geometry" />
        </mxCell>
        <mxCell id="5Pguig5L2R7S4xjTBcFx-6" value="1" style="ellipse;whiteSpace=wrap;html=1;aspect=fixed;strokeWidth=2;fontFamily=Tahoma;spacingBottom=4;spacingRight=2;strokeColor=#d3d3d3;fontSize=11;fontColor=default;" parent="5Pguig5L2R7S4xjTBcFx-7" vertex="1">
          <mxGeometry x="53" y="-385" width="20" height="20" as="geometry" />
        </mxCell>
        <mxCell id="5Pguig5L2R7S4xjTBcFx-9" value="2" style="ellipse;whiteSpace=wrap;html=1;aspect=fixed;strokeWidth=2;fontFamily=Tahoma;spacingBottom=4;spacingRight=2;strokeColor=#d3d3d3;fontSize=11;fontColor=default;" parent="5Pguig5L2R7S4xjTBcFx-7" vertex="1">
          <mxGeometry x="7" y="-242" width="20" height="20" as="geometry" />
        </mxCell>
        <mxCell id="KAIxgbsrkHdad3dWBSFc-38" value="dl" parent="KAIxgbsrkHdad3dWBSFc-0" visible="0" />
        <mxCell id="KAIxgbsrkHdad3dWBSFc-39" value="" style="outlineConnect=0;dashed=0;verticalLabelPosition=bottom;verticalAlign=top;align=center;html=1;shape=mxgraph.aws3.router;fillColor=#F58534;gradientColor=none;fontFamily=Helvetica;fontSize=11;fontColor=default;" parent="KAIxgbsrkHdad3dWBSFc-38" vertex="1">
          <mxGeometry x="-264.4" y="-268" width="58" height="60" as="geometry" />
        </mxCell>
        <mxCell id="KAIxgbsrkHdad3dWBSFc-40" style="edgeStyle=orthogonalEdgeStyle;shape=connector;rounded=0;orthogonalLoop=1;jettySize=auto;html=1;entryX=0;entryY=0.5;entryDx=0;entryDy=0;labelBackgroundColor=default;strokeColor=default;strokeWidth=2;align=center;verticalAlign=middle;fontFamily=Helvetica;fontSize=11;fontColor=default;endArrow=none;endFill=0;" parent="KAIxgbsrkHdad3dWBSFc-38" target="KAIxgbsrkHdad3dWBSFc-41" edge="1">
          <mxGeometry relative="1" as="geometry">
            <mxPoint x="-205.4000000000001" y="-240" as="sourcePoint" />
          </mxGeometry>
        </mxCell>
        <mxCell id="KAIxgbsrkHdad3dWBSFc-41" value="Direct&lt;br&gt;Link" style="image;aspect=fixed;perimeter=ellipsePerimeter;html=1;align=center;shadow=0;dashed=0;fontColor=#000000;labelBackgroundColor=default;fontSize=12;spacingTop=3;image=img/lib/ibm/vpc/DirectLink.svg;" parent="KAIxgbsrkHdad3dWBSFc-38" vertex="1">
          <mxGeometry x="-132.4" y="-270" width="60" height="60" as="geometry" />
        </mxCell>
        <mxCell id="KAIxgbsrkHdad3dWBSFc-42" style="edgeStyle=orthogonalEdgeStyle;shape=connector;rounded=0;orthogonalLoop=1;jettySize=auto;html=1;entryX=0;entryY=0.5;entryDx=0;entryDy=0;labelBackgroundColor=default;strokeColor=default;strokeWidth=2;align=center;verticalAlign=middle;fontFamily=Helvetica;fontSize=11;fontColor=default;endArrow=none;endFill=0;" parent="KAIxgbsrkHdad3dWBSFc-38" source="KAIxgbsrkHdad3dWBSFc-41" target="KAIxgbsrkHdad3dWBSFc-43" edge="1">
          <mxGeometry relative="1" as="geometry" />
        </mxCell>
        <mxCell id="KAIxgbsrkHdad3dWBSFc-43" value="FW 10.1.15.196" style="aspect=fixed;perimeter=ellipsePerimeter;html=1;align=center;shadow=0;dashed=0;fontColor=black;fontSize=12;spacingTop=3;image;image=img/lib/ibm/vpc/Instance.svg;overflow=visible;noLabel=0;labelBackgroundColor=none;" parent="KAIxgbsrkHdad3dWBSFc-38" vertex="1">
          <mxGeometry x="-30" y="-270" width="60" height="60" as="geometry" />
        </mxCell>
        <mxCell id="KAIxgbsrkHdad3dWBSFc-44" value="" style="sketch=0;points=[[0.5,0,0],[1,0.5,0],[0.5,1,0],[0,0.5,0],[0.145,0.145,0],[0.8555,0.145,0],[0.855,0.8555,0],[0.145,0.855,0]];verticalLabelPosition=bottom;html=1;verticalAlign=top;aspect=fixed;align=center;pointerEvents=1;shape=mxgraph.cisco19.rect;prIcon=router_with_firewall;fillColor=#FAFAFA;strokeColor=#005073;shadow=0;dashed=0;labelBackgroundColor=none;fontFamily=Helvetica;fontSize=12;fontColor=black;" parent="KAIxgbsrkHdad3dWBSFc-38" vertex="1">
          <mxGeometry x="14.999999999999995" y="-292" width="33" height="33" as="geometry" />
        </mxCell>
        <mxCell id="KAIxgbsrkHdad3dWBSFc-45" value="to-enterprise" parent="KAIxgbsrkHdad3dWBSFc-0" visible="0" />
        <mxCell id="UwNYNKmvV8UiWjBvIWau-16" style="edgeStyle=none;shape=connector;rounded=0;orthogonalLoop=1;jettySize=auto;html=1;labelBackgroundColor=default;strokeColor=#82b366;strokeWidth=3;align=center;verticalAlign=middle;fontFamily=Helvetica;fontSize=11;fontColor=default;endArrow=classic;endFill=1;elbow=vertical;exitX=0;exitY=0.25;exitDx=0;exitDy=0;fillColor=#d5e8d4;entryX=1;entryY=0.5;entryDx=0;entryDy=0;" edge="1" parent="KAIxgbsrkHdad3dWBSFc-45" target="UwNYNKmvV8UiWjBvIWau-17">
          <mxGeometry relative="1" as="geometry">
            <Array as="points">
              <mxPoint x="94" y="-254" />
              <mxPoint x="-2" y="-314" />
              <mxPoint x="-232" y="-314" />
            </Array>
            <mxPoint x="388.5671842700026" y="-254.41640786499875" as="sourcePoint" />
            <mxPoint x="-280" y="-286.5" as="targetPoint" />
          </mxGeometry>
        </mxCell>
        <mxCell id="KAIxgbsrkHdad3dWBSFc-49" value="dns" parent="KAIxgbsrkHdad3dWBSFc-0" visible="0" />
        <mxCell id="KAIxgbsrkHdad3dWBSFc-50" style="edgeStyle=none;shape=connector;rounded=0;orthogonalLoop=1;jettySize=auto;html=1;labelBackgroundColor=default;strokeColor=#99CCFF;strokeWidth=3;align=center;verticalAlign=middle;fontFamily=Helvetica;fontSize=11;fontColor=default;endArrow=classic;endFill=1;elbow=vertical;exitX=0;exitY=0;exitDx=0;exitDy=0;" parent="KAIxgbsrkHdad3dWBSFc-49" source="UwNYNKmvV8UiWjBvIWau-7" edge="1">
          <mxGeometry relative="1" as="geometry">
            <Array as="points">
              <mxPoint x="229" y="-275" />
            </Array>
            <mxPoint x="378.5671842700026" y="-264.41640786499875" as="sourcePoint" />
            <mxPoint x="166.05999999999995" y="-363" as="targetPoint" />
          </mxGeometry>
        </mxCell>
        <mxCell id="KAIxgbsrkHdad3dWBSFc-52" style="edgeStyle=none;shape=connector;rounded=0;orthogonalLoop=1;jettySize=auto;html=1;labelBackgroundColor=default;strokeColor=#99CCFF;strokeWidth=3;align=center;verticalAlign=middle;fontFamily=Helvetica;fontSize=11;fontColor=default;endArrow=classic;endFill=1;elbow=vertical;entryX=1;entryY=0.5;entryDx=0;entryDy=0;" parent="KAIxgbsrkHdad3dWBSFc-49" target="UwNYNKmvV8UiWjBvIWau-5" edge="1">
          <mxGeometry relative="1" as="geometry">
            <mxPoint x="128" y="-384.59287234042563" as="sourcePoint" />
            <mxPoint x="-298.3499999999999" y="-386.40712765957437" as="targetPoint" />
          </mxGeometry>
        </mxCell>
        <mxCell id="UwNYNKmvV8UiWjBvIWau-9" value="DNS" style="shape=image;aspect=fixed;image=data:image/svg+xml,PHN2ZyBpZD0iTGF5ZXJfMSIgZGF0YS1uYW1lPSJMYXllciAxIiB4bWxucz0iaHR0cDovL3d3dy53My5vcmcvMjAwMC9zdmciIHZpZXdCb3g9IjAgMCA0OSA0OSI+PGRlZnM+PHN0eWxlPi5jbHMtMXtmaWxsOiMxMTkyZTg7fS5jbHMtMntmaWxsOiNmZmY7fS5jbHMtM3tmaWxsOm5vbmU7fTwvc3R5bGU+PC9kZWZzPjxyZWN0IGNsYXNzPSJjbHMtMSIgeD0iMC41IiB5PSIwLjUiIHdpZHRoPSI0OCIgaGVpZ2h0PSI0OCIgcng9IjgiLz48cGF0aCBjbGFzcz0iY2xzLTIiIGQ9Ik0zMy4yNSwyNS4xMlYyNC41YTguNzUsOC43NSwwLDEsMC04Ljc1LDguNzUsOS4xMyw5LjEzLDAsMCwwLDItLjIzbC0uMjktMS4yMmE3LjY1LDcuNjUsMCwwLDEtMS43My4ybC0uMzUsMEExMi41OSwxMi41OSwwLDAsMSwyMiwyNS4xMlpNMzIsMjMuODhIMjguMjNhMTUuMDYsMTUuMDYsMCwwLDAtMS43My02LjZBNy41LDcuNSwwLDAsMSwzMiwyMy44OFpNMjQuODUsMTdBMTIuNTksMTIuNTksMCwwLDEsMjcsMjMuODhIMjJBMTIuNTksMTIuNTksMCwwLDEsMjQuMTUsMTdsLjM1LDBabS0yLjM1LjI2YTE1LjA2LDE1LjA2LDAsMCwwLTEuNzMsNi42SDE3QTcuNSw3LjUsMCwwLDEsMjIuNSwxNy4yOFptMCwxNC40NEE3LjUsNy41LDAsMCwxLDE3LDI1LjEyaDMuNzRBMTUuMDYsMTUuMDYsMCwwLDAsMjIuNSwzMS43MloiLz48cmVjdCBjbGFzcz0iY2xzLTIiIHg9IjI3IiB5PSIyNyIgd2lkdGg9IjYuMjUiIGhlaWdodD0iMS4yNSIvPjxyZWN0IGNsYXNzPSJjbHMtMiIgeD0iMjciIHk9IjI5LjUiIHdpZHRoPSIzLjc1IiBoZWlnaHQ9IjEuMjUiLz48cmVjdCBjbGFzcz0iY2xzLTMiIHg9IjE0LjUiIHk9IjE0LjUiIHdpZHRoPSIyMCIgaGVpZ2h0PSIyMCIvPjwvc3ZnPg==;fontSize=14;fontFamily=IBM Plex Sans;fontSource=fonts%2FIBMPlexSans-Regular.woff;labelPosition=center;verticalLabelPosition=bottom;align=center;verticalAlign=top;spacingTop=-7;" vertex="1" parent="KAIxgbsrkHdad3dWBSFc-49">
          <mxGeometry x="121" y="-410" width="48" height="48" as="geometry" />
        </mxCell>
        <mxCell id="UwNYNKmvV8UiWjBvIWau-5" value="DNS" style="shape=image;aspect=fixed;image=data:image/svg+xml,PHN2ZyBpZD0iTGF5ZXJfMSIgZGF0YS1uYW1lPSJMYXllciAxIiB4bWxucz0iaHR0cDovL3d3dy53My5vcmcvMjAwMC9zdmciIHZpZXdCb3g9IjAgMCA0OSA0OSI+PGRlZnM+PHN0eWxlPi5jbHMtMXtmaWxsOiMxMTkyZTg7fS5jbHMtMntmaWxsOiNmZmY7fS5jbHMtM3tmaWxsOm5vbmU7fTwvc3R5bGU+PC9kZWZzPjxyZWN0IGNsYXNzPSJjbHMtMSIgeD0iMC41IiB5PSIwLjUiIHdpZHRoPSI0OCIgaGVpZ2h0PSI0OCIgcng9IjgiLz48cGF0aCBjbGFzcz0iY2xzLTIiIGQ9Ik0zMy4yNSwyNS4xMlYyNC41YTguNzUsOC43NSwwLDEsMC04Ljc1LDguNzUsOS4xMyw5LjEzLDAsMCwwLDItLjIzbC0uMjktMS4yMmE3LjY1LDcuNjUsMCwwLDEtMS43My4ybC0uMzUsMEExMi41OSwxMi41OSwwLDAsMSwyMiwyNS4xMlpNMzIsMjMuODhIMjguMjNhMTUuMDYsMTUuMDYsMCwwLDAtMS43My02LjZBNy41LDcuNSwwLDAsMSwzMiwyMy44OFpNMjQuODUsMTdBMTIuNTksMTIuNTksMCwwLDEsMjcsMjMuODhIMjJBMTIuNTksMTIuNTksMCwwLDEsMjQuMTUsMTdsLjM1LDBabS0yLjM1LjI2YTE1LjA2LDE1LjA2LDAsMCwwLTEuNzMsNi42SDE3QTcuNSw3LjUsMCwwLDEsMjIuNSwxNy4yOFptMCwxNC40NEE3LjUsNy41LDAsMCwxLDE3LDI1LjEyaDMuNzRBMTUuMDYsMTUuMDYsMCwwLDAsMjIuNSwzMS43MloiLz48cmVjdCBjbGFzcz0iY2xzLTIiIHg9IjI3IiB5PSIyNyIgd2lkdGg9IjYuMjUiIGhlaWdodD0iMS4yNSIvPjxyZWN0IGNsYXNzPSJjbHMtMiIgeD0iMjciIHk9IjI5LjUiIHdpZHRoPSIzLjc1IiBoZWlnaHQ9IjEuMjUiLz48cmVjdCBjbGFzcz0iY2xzLTMiIHg9IjE0LjUiIHk9IjE0LjUiIHdpZHRoPSIyMCIgaGVpZ2h0PSIyMCIvPjwvc3ZnPg==;fontSize=14;fontFamily=IBM Plex Sans;fontSource=fonts%2FIBMPlexSans-Regular.woff;labelPosition=center;verticalLabelPosition=bottom;align=center;verticalAlign=top;spacingTop=-7;" vertex="1" parent="KAIxgbsrkHdad3dWBSFc-49">
          <mxGeometry x="-334" y="-410" width="48" height="48" as="geometry" />
        </mxCell>
      </root>
    </mxGraphModel>
  </diagram>
  <diagram name="zones-power" id="aIjSQJw7LC-uaFbCz7MD">
    <mxGraphModel dx="1826" dy="1492" grid="1" gridSize="10" guides="1" tooltips="1" connect="1" arrows="1" fold="1" page="0" pageScale="1" pageWidth="1050" pageHeight="500" math="0" shadow="0">
      <root>
        <mxCell id="JWrMa3PNSD7KLAVoiIO2-0" />
        <mxCell id="JWrMa3PNSD7KLAVoiIO2-1" parent="JWrMa3PNSD7KLAVoiIO2-0" />
        <mxCell id="JWrMa3PNSD7KLAVoiIO2-2" value="IBM Cloud" style="shape=mxgraph.ibm.box;prType=cloud;fontStyle=0;verticalAlign=top;align=left;spacingLeft=32;spacingTop=4;fillColor=none;rounded=0;whiteSpace=wrap;html=1;strokeColor=#4376BB;strokeWidth=3;dashed=0;container=0;spacing=-4;collapsible=0;expand=0;recursiveResize=0;" parent="JWrMa3PNSD7KLAVoiIO2-1" vertex="1">
          <mxGeometry x="-312" y="-432" width="500" height="240" as="geometry" />
        </mxCell>
        <mxCell id="JWrMa3PNSD7KLAVoiIO2-3" value="&lt;span style=&quot;font-weight: normal;&quot;&gt;us-south&lt;/span&gt;" style="shape=mxgraph.ibm.box;prType=region;fontStyle=1;verticalAlign=top;align=left;spacingLeft=32;spacingTop=4;fillColor=none;rounded=0;whiteSpace=wrap;html=1;strokeColor=#919191;strokeWidth=2;container=0;spacing=-4;collapsible=0;expand=0;recursiveResize=0;" parent="JWrMa3PNSD7KLAVoiIO2-1" vertex="1">
          <mxGeometry x="-300" y="-403" width="480" height="203" as="geometry" />
        </mxCell>
        <mxCell id="JWrMa3PNSD7KLAVoiIO2-4" value="Zone 1&lt;br&gt;10.1.0.0/16" style="shape=mxgraph.ibm.box;prType=zone;fontStyle=0;verticalAlign=top;align=left;spacingLeft=32;spacingTop=4;fillColor=#E0E0E0;rounded=0;whiteSpace=wrap;html=1;strokeColor=#919191;strokeWidth=1;dashed=0;container=0;spacing=-4;collapsible=0;expand=0;recursiveResize=0;flipV=0;" parent="JWrMa3PNSD7KLAVoiIO2-1" vertex="1">
          <mxGeometry x="-290" y="-317" width="460" height="90" as="geometry" />
        </mxCell>
        <mxCell id="JWrMa3PNSD7KLAVoiIO2-8" value="VPC Transit&lt;br&gt;on-prem 192.168.0.0/24" style="shape=mxgraph.ibm.box;prType=vpc;fontStyle=0;verticalAlign=top;align=left;spacingLeft=32;spacingTop=4;fillColor=none;rounded=0;whiteSpace=wrap;html=1;strokeColor=#4376BB;strokeWidth=2;dashed=0;container=0;spacing=-4;collapsible=0;expand=0;recursiveResize=0;" parent="JWrMa3PNSD7KLAVoiIO2-1" vertex="1">
          <mxGeometry x="-194" y="-379" width="164" height="160" as="geometry" />
        </mxCell>
        <mxCell id="JWrMa3PNSD7KLAVoiIO2-9" value="Zone 1&lt;br&gt;10.1.15.0/24" style="shape=mxgraph.ibm.box;prType=zone;fontStyle=0;verticalAlign=top;align=left;spacingLeft=32;spacingTop=4;fillColor=#E0E0E0;rounded=0;whiteSpace=wrap;html=1;strokeColor=#919191;strokeWidth=1;dashed=0;container=1;spacing=-4;collapsible=0;expand=0;recursiveResize=0;fontFamily=Helvetica;fontSize=11;fontColor=default;" parent="JWrMa3PNSD7KLAVoiIO2-1" vertex="1">
          <mxGeometry x="-185" y="-305" width="138" height="65" as="geometry" />
        </mxCell>
        <mxCell id="JWrMa3PNSD7KLAVoiIO2-18" value="Power Workspace" style="shape=mxgraph.ibm.box;prType=vpc;fontStyle=0;verticalAlign=top;align=left;spacingLeft=32;spacingTop=4;fillColor=none;rounded=0;whiteSpace=wrap;html=1;strokeColor=#4376BB;strokeWidth=2;dashed=0;container=0;spacing=-4;collapsible=0;expand=0;recursiveResize=0;" parent="JWrMa3PNSD7KLAVoiIO2-1" vertex="1">
          <mxGeometry x="-10" y="-379" width="157" height="160" as="geometry" />
        </mxCell>
        <mxCell id="JWrMa3PNSD7KLAVoiIO2-19" value="Network DAL10&lt;br&gt;10.1.0.0/24" style="shape=mxgraph.ibm.box;prType=zone;fontStyle=0;verticalAlign=top;align=left;spacingLeft=32;spacingTop=4;fillColor=#E0E0E0;rounded=0;whiteSpace=wrap;html=1;strokeColor=#919191;strokeWidth=1;dashed=0;container=1;spacing=-4;collapsible=0;expand=0;recursiveResize=0;fontFamily=Helvetica;fontSize=11;fontColor=default;" parent="JWrMa3PNSD7KLAVoiIO2-1" vertex="1">
          <mxGeometry x="-1" y="-305" width="138" height="65" as="geometry" />
        </mxCell>
        <mxCell id="LVqFymU848LAoxr32VC7-0" value="Enterprise Network&lt;br&gt;192.168.0.0/24" style="shape=mxgraph.ibm.box;prType=enterprise;fontStyle=0;verticalAlign=top;align=left;spacingLeft=32;spacingTop=4;fillColor=none;rounded=0;whiteSpace=wrap;html=1;strokeColor=#4376BB;strokeWidth=3;dashed=0;container=0;spacing=-4;collapsible=0;expand=0;recursiveResize=0;" parent="JWrMa3PNSD7KLAVoiIO2-1" vertex="1">
          <mxGeometry x="-500" y="-432" width="170" height="240" as="geometry" />
        </mxCell>
        <mxCell id="JWrMa3PNSD7KLAVoiIO2-22" value="route" parent="JWrMa3PNSD7KLAVoiIO2-0" />
      </root>
    </mxGraphModel>
  </diagram>
</mxfile>
